<svg width="30" height="30" viewBox="0 0 30 30" fill="none" xmlns="http://www.w3.org/2000/svg">
<path d="M29.4 14.6295C29.4 22.3773 23.0703 28.6581 15.2606 28.6581C12.7823 28.6581 10.4542 28.0242 8.42757 26.9141L0.600006 29.4L3.1516 21.8711C1.865 19.7581 1.12404 17.2769 1.12404 14.6286C1.12497 6.88084 7.45277 0.6 15.2625 0.6C23.0713 0.601878 29.4 6.88178 29.4 14.6295ZM15.2597 2.83698C8.70555 2.83698 3.37417 8.12799 3.37417 14.6323C3.37417 17.213 4.21562 19.6022 5.63839 21.5461L4.15458 25.9253L8.72058 24.4743C10.5988 25.7064 12.8461 26.4239 15.2597 26.4239C21.8138 26.4239 27.1471 21.1339 27.1471 14.6295C27.1489 8.12799 21.8147 2.83698 15.2597 2.83698ZM22.4007 17.861C22.3125 17.7192 22.0814 17.6328 21.7358 17.46C21.3912 17.2872 19.6848 16.4561 19.3683 16.3434C19.049 16.2279 18.818 16.1697 18.587 16.5143C18.3588 16.859 17.6939 17.6328 17.4901 17.8638C17.2882 18.0939 17.0863 18.123 16.7397 17.9531C16.3932 17.7784 15.2756 17.4178 13.9515 16.2467C12.9213 15.3339 12.2254 14.2097 12.0244 13.8651C11.8206 13.5214 12.0037 13.3354 12.1756 13.1645C12.3306 13.0095 12.5221 12.7625 12.6959 12.5606C12.8696 12.3606 12.9269 12.2188 13.0424 11.9887C13.156 11.7586 13.0988 11.5586 13.0133 11.3849C12.9269 11.2121 12.2348 9.52164 11.9446 8.83327C11.6563 8.14583 11.368 8.25946 11.1651 8.25946C10.9632 8.25946 10.7322 8.23129 10.5012 8.23129C10.2701 8.23129 9.89448 8.31487 9.578 8.65953C9.26151 9.00419 8.36559 9.83531 8.36559 11.5276C8.36559 13.2218 9.60617 14.8549 9.77991 15.0841C9.95458 15.3123 12.1784 18.8988 15.7011 20.2755C19.2256 21.6513 19.2256 21.1921 19.8604 21.1339C20.4971 21.0756 21.9115 20.3027 22.1988 19.5007C22.4881 18.695 22.4881 18.0047 22.4007 17.861Z" fill="#18A43F"/>
</svg>
