<svg width="532" height="188" viewBox="0 0 532 188" fill="none" xmlns="http://www.w3.org/2000/svg">
<g clip-path="url(#clip0_54951_25677)">
<g clip-path="url(#clip1_54951_25677)">
<g clip-path="url(#clip2_54951_25677)">
<g clip-path="url(#clip3_54951_25677)">
<g clip-path="url(#clip4_54951_25677)">
<g clip-path="url(#clip5_54951_25677)">
<g clip-path="url(#clip6_54951_25677)">
<path d="M226.428 83.5513C226.428 80.258 227.129 76.9768 228.53 73.7074C229.943 70.4501 232.283 67.6957 235.552 65.4443C238.809 63.2049 243.072 62.0852 248.34 62.0852H251.483V70.2585H248.7C244.628 70.2585 241.264 71.3363 238.606 73.4919C235.935 75.6475 234.6 79.4796 234.6 84.9884V91.9042C235.678 90.7666 237.265 89.8085 239.36 89.0301C241.455 88.2517 243.491 87.8625 245.467 87.8625C248.939 87.8625 252.142 88.7128 255.076 90.4133C258.009 92.1258 260.332 94.4311 262.044 97.3291C263.745 100.239 264.595 103.431 264.595 106.904C264.595 110.376 263.745 113.58 262.044 116.514C260.332 119.448 258.009 121.765 255.076 123.466C252.142 125.178 248.939 126.034 245.467 126.034C241.994 126.034 238.809 125.178 235.911 123.466C233.002 121.765 230.691 119.448 228.979 116.514C227.278 113.58 226.428 110.376 226.428 106.904V83.5513ZM234.511 106.904C234.511 109.957 235.576 112.562 237.708 114.718C239.827 116.873 242.413 117.951 245.467 117.951C248.52 117.951 251.112 116.873 253.244 114.718C255.363 112.562 256.423 109.957 256.423 106.904C256.423 103.85 255.363 101.275 253.244 99.1794C251.112 97.0836 248.52 96.0358 245.467 96.0358C242.473 96.0358 239.917 97.0357 237.797 99.0356C235.666 101.048 234.57 103.52 234.511 106.454V106.904ZM272.946 111.933C274.383 113.909 275.922 115.406 277.562 116.424C279.215 117.442 281.178 117.951 283.453 117.951C286.926 117.951 289.62 116.873 291.536 114.718C293.452 112.562 294.41 109.957 294.41 106.904C294.41 103.55 293.164 100.856 290.674 98.8201C288.195 96.7843 284.98 95.7663 281.029 95.7663H270.073L273.665 62.0852H297.553V70.2585H281.208L279.412 87.8625H283.453C286.926 87.8625 290.129 88.7128 293.062 90.4133C295.996 92.1258 298.313 94.4311 300.013 97.3291C301.726 100.239 302.582 103.431 302.582 106.904C302.582 110.376 301.726 113.58 300.013 116.514C298.313 119.448 295.996 121.765 293.062 123.466C290.129 125.178 286.926 126.034 283.453 126.034C280.221 126.034 277.197 125.268 274.383 123.735C271.569 122.214 269.294 120.136 267.558 117.502L272.946 111.933ZM362.193 121.813C360.038 123.19 357.583 124.238 354.829 124.957C352.075 125.675 349.321 126.034 346.567 126.034C342.137 126.034 338.623 124.939 336.025 122.747C333.414 120.568 332.109 117.292 332.109 112.921V94.5089C332.109 89.6588 333.624 85.8865 336.653 83.192C339.671 80.4976 343.664 79.1503 348.633 79.1503C353.602 79.1503 357.482 80.4796 360.271 83.1382C363.049 85.8087 364.438 89.5091 364.438 94.2395V107.173L340.371 108.52V112.023C340.371 114.119 340.988 115.718 342.221 116.819C343.442 117.933 345.161 118.49 347.376 118.49C350.669 118.49 354.59 117.292 359.14 114.897L362.193 121.813ZM356.176 94.1496C356.176 91.6947 355.398 89.8804 353.842 88.7068C352.285 87.5451 350.519 86.9643 348.543 86.9643C345.969 86.9643 343.963 87.6649 342.526 89.066C341.089 90.4791 340.371 92.3234 340.371 94.5987V100.886L356.176 99.9877V94.1496ZM435.832 124.957L408.083 78.6114V124.957H399.911V62.0852H408.083L435.832 108.251V62.0852H444.094V124.957H435.832ZM472.742 76.6355L477.052 66.6658C477.411 65.7677 477.962 65.0911 478.704 64.636C479.459 64.1929 480.225 63.9713 481.003 63.9713C481.542 63.9713 481.991 64.0612 482.35 64.2408C483.009 64.5402 483.518 64.9593 483.877 65.4982C484.236 66.0371 484.416 66.6658 484.416 67.3844C484.416 68.3424 484.087 69.2406 483.428 70.0789L478.399 76.6355H472.742ZM491.78 108.43C491.78 113.46 490.403 117.622 487.649 120.915C484.895 124.208 480.734 125.855 475.166 125.855C469.598 125.855 465.39 124.196 462.54 120.879C459.702 117.55 458.283 113.4 458.283 108.43V96.5747C458.283 90.8863 459.732 86.5272 462.63 83.4974C465.539 80.4796 469.718 78.9707 475.166 78.9707C480.375 78.9707 484.446 80.5395 487.379 83.6771C490.313 86.8266 491.78 91.1258 491.78 96.5747V108.43ZM483.698 96.5747C483.698 90.2277 480.854 87.0541 475.166 87.0541C472.592 87.0541 470.496 87.7727 468.88 89.2097C467.263 90.6468 466.455 93.1018 466.455 96.5747V109.329C466.455 112.143 467.263 114.28 468.88 115.741C470.496 117.214 472.592 117.951 475.166 117.951C477.741 117.951 479.806 117.202 481.363 115.706C482.919 114.209 483.698 112.083 483.698 109.329V96.5747ZM506.4 112.921C506.52 114.538 507.358 115.903 508.914 117.017C510.471 118.119 512.477 118.669 514.931 118.669C517.146 118.669 518.99 118.119 520.463 117.017C521.924 115.903 522.654 114.478 522.654 112.742C522.654 110.646 521.864 109.059 520.284 107.981C518.691 106.904 516.278 105.826 513.045 104.748C510.351 103.85 508.136 102.982 506.4 102.143C504.664 101.305 503.125 100.078 501.784 98.4608C500.431 96.8441 499.635 94.7484 499.395 92.1737C499.216 90.1378 499.623 88.084 500.617 86.0123C501.598 83.9525 503.275 82.246 505.646 80.8927C508.004 79.5515 511.04 78.8809 514.752 78.8809C516.667 78.8809 518.362 79.0725 519.835 79.4557C521.295 79.8509 522.445 80.258 523.283 80.6772C524.121 81.0963 524.63 81.3658 524.81 81.4855L522.385 88.8505C522.265 88.7307 521.906 88.5032 521.307 88.1679C520.709 87.8445 519.84 87.5152 518.703 87.1799C517.565 86.8566 516.248 86.6949 514.752 86.6949C512.177 86.6949 510.381 87.2158 509.363 88.2577C508.346 89.3115 507.927 90.6169 508.106 92.1737C508.286 93.3712 509.052 94.3592 510.405 95.1376C511.746 95.916 513.734 96.7543 516.368 97.6525C519.421 98.7303 521.936 99.7901 523.912 100.832C525.887 101.886 527.594 103.383 529.03 105.323C530.467 107.275 531.186 109.778 531.186 112.831C531.186 116.604 529.827 119.789 527.109 122.388C524.379 124.999 520.319 126.304 514.931 126.304C511.519 126.304 508.573 125.717 506.095 124.543C503.604 123.382 501.718 121.843 500.437 119.927C499.144 118.011 498.437 115.885 498.318 113.55L506.4 112.921Z" fill="#1A6B52"/>
</g>
</g>
</g>
</g>
<g clip-path="url(#clip7_54951_25677)">
<g clip-path="url(#clip8_54951_25677)">
<g clip-path="url(#clip9_54951_25677)">
<g clip-path="url(#clip10_54951_25677)">
<path d="M97.3219 138.598C94.6396 138.598 91.7385 138.414 88.7044 138.051C60.4508 134.662 58.084 112.596 58.084 92.1761C58.084 68.8051 76.615 49.7908 99.3904 49.7908C119.213 49.7908 130.582 65.7148 130.582 93.4809C130.584 115.311 128.013 138.598 97.3219 138.598ZM99.3925 51.9369C77.7995 51.9369 60.2319 69.9876 60.2319 92.1761C60.2319 117.056 65.0385 133.051 88.9619 135.92C91.7355 136.263 94.5271 136.441 97.3219 136.454C126.035 136.454 128.436 115.225 128.436 93.4831C128.438 77.9647 124.663 51.9369 99.3925 51.9369Z" fill="#4C6359"/>
<path d="M74.3343 93.481H72.1885V105.589H74.3343V93.481Z" fill="#4C6359"/>
<path d="M111.999 95.245H109.853V107.353H111.999V95.245Z" fill="#4C6359"/>
<path d="M93.427 105.123H91.2812V116.15H93.427V105.123Z" fill="#4C6359"/>
<path d="M72.2353 110.557L71.6431 108.493L78.4667 106.542V103.087H80.6125V108.16L72.2353 110.557Z" fill="#4C6359"/>
<path d="M110.474 111.609L102.785 108.036V105.123H104.931V106.667L111.377 109.662L110.474 111.609Z" fill="#4C6359"/>
<path d="M110.602 83.4801C107.903 83.4801 107.025 82.2869 106.197 80.7503C105.781 79.9777 105.388 79.248 104.454 78.6128C103.231 77.7779 100.751 78.3788 98.5664 78.9068C97.3562 79.2008 96.2103 79.4776 95.234 79.5291C91.6419 79.7201 88.1379 79.8189 84.6488 79.9197C81.1641 80.0185 77.6943 80.1193 74.1666 80.3082L74.0508 78.1642C77.5956 77.9754 81.0825 77.8745 84.5866 77.7736C88.0585 77.6749 91.5454 77.5741 95.1203 77.3831C95.8992 77.3423 96.9506 77.0869 98.0621 76.8186C100.684 76.1855 103.652 75.4687 105.663 76.8379C107.025 77.7672 107.613 78.8553 108.083 79.7309C108.744 80.9584 109.051 81.5121 111.46 81.2889L111.664 83.4243C111.311 83.4605 110.957 83.4791 110.602 83.4801Z" fill="#4C6359"/>
<path d="M109.308 86.8989C108.587 86.6864 107.881 86.4611 107.182 86.24C104.111 85.2657 101.212 84.3557 97.6009 84.6004C96.0602 84.7098 94.5538 85.0296 92.9574 85.3687C91.4339 85.6906 89.8567 86.0275 88.2517 86.1585C85.2647 86.401 82.4173 85.9889 79.6578 85.5919C77.6064 85.2957 75.6688 85.0146 73.7075 84.9931L73.7333 82.847C75.8361 82.8728 77.9369 83.1754 79.9668 83.4694C82.6061 83.8514 85.342 84.2506 88.0779 84.0209C89.5456 83.9008 90.9875 83.5939 92.5132 83.2698C94.1097 82.9307 95.7619 82.5809 97.4507 82.4607C101.461 82.1667 104.703 83.2033 107.832 84.1948C108.519 84.4137 109.21 84.6326 109.918 84.8408L109.308 86.8989Z" fill="#4C6359"/>
<path d="M114.205 77.1835C111.604 76.9668 109.411 75.9602 107.289 74.9859C104.984 73.9257 102.806 72.9278 100.15 72.8956C97.8389 72.8634 95.972 73.1016 93.5022 73.7304C88.5347 74.9966 83.5479 74.9387 78.2628 74.8743C77.1449 74.8614 76.0183 74.8464 74.8896 74.8464V72.7003C76.0269 72.7003 77.162 72.7132 78.2886 72.7282C83.4299 72.7905 88.2772 72.8484 92.9701 71.653C95.6008 70.9813 97.6886 70.7238 100.173 70.7517C103.287 70.7881 105.776 71.932 108.184 73.0373C110.226 73.9751 112.156 74.8614 114.383 75.0481L114.205 77.1835Z" fill="#4C6359"/>
<path d="M66.442 102.576C66.0901 102.576 65.7382 102.565 65.3927 102.555L65.2661 100.404C66.5107 100.443 67.5149 100.475 68.3904 100.188L69.0534 102.228C68.1801 102.514 67.3046 102.576 66.442 102.576Z" fill="#4C6359"/>
<path d="M64.6611 106.598C64.4597 106.597 64.2585 106.587 64.0581 106.568L64.2641 104.432C65.1374 104.518 65.9614 104.299 66.8412 104.072C67.6738 103.857 68.5342 103.634 69.5127 103.623L69.5384 105.769C68.8218 105.778 68.1201 105.958 67.3776 106.151C66.5258 106.37 65.6481 106.598 64.6611 106.598Z" fill="#4C6359"/>
<path d="M62.3411 111.761L61.1523 109.974C61.942 109.45 63.178 109.124 64.3753 108.806C65.1306 108.607 66.2679 108.304 66.5233 108.094L68.3279 109.22C67.8644 110.1 66.6305 110.426 64.9246 110.879C63.944 111.139 62.8325 111.433 62.3411 111.761Z" fill="#4C6359"/>
<path d="M120.031 102.801C119.668 102.737 119.312 102.662 118.956 102.585C117.952 102.37 117.001 102.168 116.046 102.273L115.814 100.14C117.115 100.003 118.278 100.245 119.402 100.486C119.735 100.557 120.07 100.627 120.411 100.687L120.031 102.801Z" fill="#4C6359"/>
<path d="M119.054 107.392C117.612 107.377 116.208 106.926 115.027 106.098L116.295 104.364C117.102 104.954 118.349 105.306 119.331 105.233L119.503 107.373C119.354 107.387 119.204 107.393 119.054 107.392Z" fill="#4C6359"/>
<path d="M119.417 112.384C118.812 111.703 117.788 111.454 116.702 111.19C116.234 111.083 115.77 110.955 115.312 110.808L116.003 108.778C116.381 108.907 116.79 109.004 117.209 109.107C118.503 109.42 119.968 109.778 121.018 110.959L119.417 112.384Z" fill="#4C6359"/>
<path d="M98.8216 126.247C96.9548 126.247 95.0472 125.93 93.1868 125.619C92.1096 125.438 91.0539 125.26 90.054 125.162C88.9205 125.067 87.7838 125.018 86.6464 125.013C82.1896 124.932 77.1385 124.84 74.6772 120.62L76.5312 119.539C78.383 122.715 82.6038 122.794 86.6829 122.867C87.9489 122.891 89.1441 122.912 90.2664 123.026C91.3114 123.131 92.4122 123.316 93.5387 123.503C95.7897 123.88 98.12 124.267 100.18 124.031C102.085 123.807 104.602 123.342 105.117 123.048C105.699 122.717 106.016 122.23 106.386 121.666C106.879 120.906 107.497 119.962 108.83 119.44L109.611 121.44C108.918 121.711 108.611 122.185 108.182 122.839C107.75 123.503 107.212 124.327 106.177 124.915C104.911 125.636 100.609 126.144 100.427 126.166C99.8935 126.222 99.3577 126.249 98.8216 126.247Z" fill="#4C6359"/>
<path d="M92.0559 118.288H89.9102V121.148H92.0559V118.288Z" fill="#4C6359"/>
<path d="M96.1672 121.38L94.0236 121.277C94.0622 120.492 93.809 119.912 93.4185 119.12L95.3432 118.174C95.8303 119.163 96.2294 120.088 96.1672 121.38Z" fill="#4C6359"/>
<path d="M87.3287 121.193L85.3374 120.393L85.6421 119.665C85.9211 119.015 86.2086 118.341 86.3609 117.689L88.4509 118.178C88.2557 119.013 87.9295 119.775 87.6162 120.509L87.3287 121.193Z" fill="#4C6359"/>
</g>
</g>
<path d="M4.99297 69.3336C4.04512 69.016 3.17047 68.4981 2.36826 67.7798C1.56913 67.0684 1.00504 66.1358 0.675993 64.9828C0.341546 63.8275 0.427855 62.4949 0.934148 60.9828L1.23777 60.0779L3.5866 60.8649L3.31843 61.6656C2.92696 62.8325 2.91232 63.9038 3.27373 64.8796C3.63669 65.8499 4.60844 66.5998 6.18897 67.1301L8.17099 67.7944C7.95059 67.3767 7.82884 66.8279 7.80726 66.1497C7.78337 65.4761 7.8666 64.8549 8.05694 64.2861C8.39138 63.2888 8.94391 62.4502 9.7153 61.7705C10.4851 61.0961 11.3713 60.6529 12.3747 60.4402C13.3711 60.2305 14.3683 60.293 15.3654 60.6267C16.358 60.9597 17.1933 61.5115 17.873 62.283C18.5504 63.0591 18.9927 63.9485 19.2008 64.9505C19.4073 65.957 19.3434 66.9597 19.0089 67.9563C18.6745 68.9536 18.1235 69.7875 17.3559 70.4565C16.5884 71.1255 15.7007 71.5633 14.6942 71.7698C13.6878 71.9764 12.6883 71.9132 11.6958 71.5802L4.99297 69.3336ZM12.4726 69.2611C13.3457 69.554 14.1926 69.4993 15.0156 69.0977C15.8378 68.6962 16.3965 68.0572 16.6901 67.1794C16.9845 66.3015 16.9244 65.4545 16.5098 64.6391C16.0952 63.8237 15.4518 63.2687 14.5786 62.9766C13.7009 62.6822 12.8586 62.7385 12.051 63.1447C11.2488 63.5524 10.7001 64.1951 10.4058 65.073C10.1183 65.9308 10.1584 66.7624 10.5268 67.5686C10.8967 68.3694 11.5 68.9181 12.3377 69.2156L12.4726 69.2611Z" fill="#4C6359"/>
<path d="M27.2265 43.2237C27.9671 43.263 28.6152 43.1867 29.1715 42.9956C29.7202 42.8045 30.2119 42.4415 30.6465 41.9066C31.31 41.0904 31.5712 40.2518 31.4302 39.3909C31.2923 38.5262 30.8661 37.804 30.1525 37.2237C29.365 36.5832 28.4926 36.3589 27.5363 36.5508C26.5846 36.7466 25.73 37.3092 24.974 38.2402L22.8833 40.8114L15.6611 33.5357L20.2201 27.9272L22.142 29.4902L19.0218 33.3292L22.8101 37.1111L23.5815 36.1624C24.245 35.3462 25.0572 34.7558 26.0182 34.3905C26.9791 34.0259 27.9648 33.9226 28.9758 34.0799C29.9822 34.234 30.8939 34.6433 31.7099 35.3069C32.5222 35.9674 33.1102 36.7782 33.4754 37.7385C33.8399 38.6996 33.9416 39.6869 33.7806 40.7027C33.6195 41.7177 33.2073 42.6334 32.5445 43.4496C31.9273 44.2087 31.1705 44.7729 30.2735 45.1421C29.3812 45.5143 28.4603 45.6507 27.5116 45.5506L27.2265 43.2237Z" fill="#4C6359"/>
<path d="M80.9139 13.6919C80.3745 14.2507 79.7226 14.7301 78.9574 15.1309C78.1975 15.5301 77.41 15.8253 76.5962 16.0157C75.29 16.3216 74.178 16.2438 73.2602 15.7837C72.3463 15.3166 71.7382 14.438 71.4362 13.1478L70.1662 7.72345C69.8317 6.29452 70.0175 5.07832 70.7226 4.07638C71.4277 3.07367 72.5127 2.40083 73.9776 2.05786C75.4372 1.71643 76.6709 1.84051 77.6789 2.43166C78.683 3.02897 79.3481 4.02397 79.674 5.41667L80.5656 9.22713L73.5692 11.2865L73.8096 12.3162C73.9538 12.9305 74.2427 13.3597 74.6781 13.6041C75.1182 13.8468 75.6637 13.8923 76.3149 13.7397C77.2882 13.5116 78.3624 12.8873 79.5384 11.8669L80.9139 13.6919ZM77.2319 5.95618C77.0632 5.23401 76.7079 4.75539 76.1662 4.51955C75.6298 4.28294 75.0704 4.23284 74.4862 4.37003C73.728 4.54729 73.1855 4.89335 72.8572 5.40742C72.5343 5.92072 72.4511 6.51033 72.6067 7.17623L73.0421 9.03599L77.6342 7.6772L77.2319 5.95618Z" fill="#4C6359"/>
<path d="M135.212 24.7857L133.86 8.48802L127.671 21.0786L125.455 19.9888L133.851 2.90875L136.067 3.99856L137.444 20.247L143.608 7.70574L145.852 8.80941L137.457 25.8894L135.212 24.7857Z" fill="#4C6359"/>
<path d="M167.134 33.2652L170.276 32.3018C170.552 32.2039 170.815 32.2001 171.066 32.2903C171.317 32.3735 171.517 32.503 171.668 32.6787C171.774 32.8028 171.843 32.9238 171.874 33.0417C171.936 33.2521 171.941 33.4517 171.889 33.6421C171.833 33.8279 171.722 33.9928 171.554 34.1361C171.334 34.3242 171.063 34.4244 170.741 34.4367L168.247 34.567L167.134 33.2652ZM163.568 43.9058C162.413 44.8939 161.183 45.3949 159.88 45.4088C158.585 45.4234 157.388 44.7891 156.291 43.5058C155.197 42.2264 154.751 40.9324 154.954 39.6237C155.16 38.3189 155.835 37.1774 156.978 36.2001L159.706 33.8664C161.013 32.7481 162.3 32.2255 163.567 32.2987C164.833 32.3712 166.001 33.0332 167.071 34.2849C168.097 35.4841 168.537 36.7312 168.391 38.0252C168.245 39.32 167.546 40.5023 166.296 41.5721L163.568 43.9058ZM164.706 39.7131C166.165 38.4653 166.333 37.1859 165.212 35.8741C164.706 35.2822 164.129 34.9423 163.479 34.8552C162.833 34.7635 162.11 35.0602 161.311 35.7431L158.373 38.2564C157.73 38.8067 157.397 39.4133 157.375 40.0761C157.357 40.7351 157.602 41.3601 158.107 41.9521C158.617 42.5478 159.195 42.8762 159.843 42.9378C160.495 43.0033 161.136 42.7667 161.768 42.2264L164.706 39.7131Z" fill="#4C6359"/>
<path d="M172.8 64.7686C172.35 64.9643 172.044 65.3404 171.881 65.8984C171.717 66.451 171.756 67.0777 171.999 67.7782C172.221 68.4141 172.563 68.8858 173.026 69.1925C173.491 69.5047 173.971 69.574 174.469 69.4014C175.065 69.1941 175.437 68.8087 175.586 68.2445C175.737 67.685 175.806 66.8904 175.793 65.8584C175.784 64.9982 175.812 64.2784 175.878 63.6988C175.943 63.1192 176.142 62.5574 176.47 62.014C176.797 61.466 177.319 61.0282 178.035 60.7015C178.599 60.4494 179.226 60.3623 179.916 60.4409C180.6 60.5203 181.255 60.8309 181.876 61.3712C182.494 61.9138 182.988 62.7169 183.357 63.7805C183.546 64.3269 183.66 64.8279 183.695 65.2834C183.733 65.7435 183.733 66.1142 183.697 66.394C183.655 66.6753 183.628 66.8464 183.616 66.9065L181.266 66.9466C181.288 66.8996 181.318 66.7755 181.354 66.5736C181.389 66.3717 181.398 66.0903 181.378 65.7297C181.36 65.3736 181.277 64.9821 181.128 64.5551C180.871 63.8144 180.541 63.3527 180.138 63.1708C179.738 62.9813 179.326 62.9905 178.903 63.1986C178.577 63.3674 178.369 63.6818 178.278 64.1427C178.19 64.6082 178.147 65.2634 178.151 66.1081C178.145 67.0846 178.092 67.9077 177.991 68.5782C177.89 69.248 177.632 69.8839 177.217 70.4843C176.803 71.09 176.16 71.5448 175.285 71.8492C174.207 72.2238 173.16 72.1506 172.144 71.6295C171.127 71.1085 170.351 70.0781 169.816 68.5374C169.478 67.5632 169.354 66.6622 169.445 65.8345C169.531 65.0083 169.783 64.3161 170.202 63.7589C170.621 63.2009 171.159 62.7886 171.818 62.5204L172.8 64.7686Z" fill="#4C6359"/>
<path d="M15.8385 115.416C16.7864 115.098 17.7966 114.984 18.8693 115.074C19.942 115.163 20.9569 115.567 21.9125 116.285C22.8704 117.007 23.6017 118.123 24.108 119.634L24.4116 120.54L22.0628 121.327L21.7946 120.527C21.4031 119.36 20.7697 118.496 19.8943 117.935C19.0204 117.379 17.7928 117.366 16.2115 117.895L14.2295 118.56C14.6572 118.76 15.0848 119.125 15.511 119.653C15.9356 120.177 16.2439 120.722 16.4342 121.291C16.7686 122.288 16.8326 123.291 16.6261 124.298C16.4196 125.304 15.9818 126.192 15.3129 126.96C14.6387 127.73 13.8056 128.281 12.8131 128.613C11.8159 128.948 10.8133 129.011 9.80691 128.805C8.80049 128.598 7.9112 128.156 7.14058 127.477C6.3692 126.798 5.81667 125.959 5.48222 124.962C5.14777 123.965 5.08535 122.967 5.29496 121.97C5.50457 120.974 5.94921 120.09 6.62812 119.318C7.30704 118.547 8.14546 117.994 9.14264 117.659L15.8385 115.416ZM9.92019 119.979C9.04246 120.274 8.39668 120.829 7.98209 121.644C7.5675 122.46 7.50739 123.307 7.801 124.184C8.09537 125.062 8.6533 125.702 9.47632 126.104C10.2986 126.505 11.1485 126.558 12.0263 126.264C12.8994 125.971 13.5351 125.42 13.9343 124.609C14.3335 123.798 14.3867 122.954 14.0923 122.076C13.8049 121.218 13.2693 120.579 12.4856 120.16C11.708 119.744 10.8958 119.669 10.0473 119.936L9.92019 119.979Z" fill="#4C6359"/>
<path d="M22.781 148.775C22.5914 149.492 22.5336 150.142 22.6076 150.726C22.6862 151.306 22.9413 151.862 23.3728 152.392C24.0363 153.208 24.8054 153.638 25.6792 153.679C26.55 153.717 27.3453 153.443 28.0635 152.859C28.8511 152.219 29.2464 151.413 29.2495 150.441C29.2526 149.469 28.8758 148.518 28.1198 147.587L26.0291 145.016L34.6253 139.429L39.1843 145.038L37.2616 146.601L34.1414 142.762L29.6656 145.699L30.437 146.648C31.1005 147.464 31.5128 148.38 31.6739 149.396C31.8349 150.411 31.737 151.396 31.3803 152.349C31.0196 153.306 30.4332 154.115 29.6217 154.776C28.8056 155.44 27.8901 155.852 26.8745 156.013C25.8596 156.174 24.8716 156.072 23.9115 155.707C22.9505 155.342 22.1383 154.752 21.4748 153.936C20.8575 153.177 20.4599 152.32 20.2819 151.367C20.1031 150.421 20.1578 149.492 20.446 148.579L22.781 148.775Z" fill="#4C6359"/>
<path d="M78.2438 186.095C77.5125 186.356 76.7157 186.497 75.8526 186.516C74.9941 186.537 74.158 186.451 73.3435 186.261C72.0373 185.955 71.0755 185.392 70.4567 184.572C69.8449 183.748 69.69 182.691 69.9921 181.4L71.262 175.975C71.5965 174.547 72.3024 173.539 73.3789 172.954C74.4555 172.369 75.727 172.248 77.1911 172.59C78.6561 172.933 79.7064 173.592 80.3422 174.568C80.9779 175.544 81.1328 176.731 80.8053 178.129L79.9137 181.94L72.7316 180.672L72.4888 181.709C72.3447 182.323 72.4141 182.836 72.6954 183.248C72.982 183.661 73.4506 183.943 74.101 184.097C75.0743 184.325 76.3142 184.242 77.8215 183.849L78.2438 186.095ZM78.3771 177.529C78.5459 176.806 78.4403 176.22 78.0604 175.768C77.6859 175.313 77.2073 175.017 76.6232 174.881C75.8649 174.704 75.2253 174.772 74.7028 175.088C74.1857 175.404 73.849 175.898 73.6918 176.569L73.2564 178.428L77.9748 179.25L78.3771 177.529Z" fill="#4C6359"/>
<path d="M141.219 175.824L127.49 166.94L133.679 179.531L131.462 180.621L123.066 163.54L125.283 162.451L138.988 171.284L132.823 158.743L135.068 157.639L143.463 174.72L141.219 175.824Z" fill="#4C6359"/>
<path d="M155.255 144.951L153.811 142.002C153.674 141.74 153.628 141.479 153.671 141.218C153.715 140.958 153.813 140.737 153.967 140.557C154.073 140.433 154.182 140.35 154.294 140.308C154.492 140.214 154.689 140.179 154.884 140.2C155.077 140.226 155.255 140.31 155.419 140.449C155.639 140.637 155.784 140.889 155.853 141.204L156.368 143.649L155.255 144.951ZM166.313 146.83C167.468 147.818 168.156 148.952 168.375 150.234C168.587 151.516 168.147 152.797 167.052 154.075C165.955 155.359 164.744 156.001 163.42 156.005C162.1 156.003 160.867 155.514 159.725 154.536L156.996 152.203C155.689 151.084 154.973 149.894 154.849 148.631C154.724 147.369 155.199 146.109 156.271 144.854C157.293 143.659 158.455 143.033 159.757 142.976C161.058 142.919 162.335 143.426 163.585 144.496L166.313 146.83ZM161.996 146.355C160.537 145.107 159.248 145.137 158.13 146.444C157.621 147.04 157.373 147.666 157.387 148.321C157.397 148.973 157.802 149.641 158.601 150.325L161.533 152.833C162.181 153.387 162.833 153.623 163.491 153.542C164.145 153.457 164.727 153.117 165.236 152.522C165.742 151.93 165.975 151.309 165.936 150.66C165.899 150.006 165.564 149.407 164.928 148.863L161.996 146.355Z" fill="#4C6359"/>
<path d="M178.778 125.695C179.252 125.821 179.726 125.715 180.199 125.379C180.67 125.048 181.029 124.529 181.274 123.823C181.493 123.192 181.517 122.612 181.344 122.085C181.173 121.552 180.838 121.199 180.341 121.026C179.745 120.819 179.215 120.888 178.749 121.233C178.282 121.583 177.734 122.167 177.106 122.984C176.579 123.664 176.111 124.211 175.7 124.625C175.288 125.039 174.786 125.357 174.19 125.579C173.588 125.804 172.908 125.825 172.149 125.638C171.55 125.485 171.005 125.165 170.511 124.677C170.019 124.188 169.698 123.539 169.551 122.73C169.399 121.919 169.507 120.983 169.876 119.919C170.066 119.373 170.291 118.91 170.55 118.533C170.806 118.149 171.035 117.858 171.237 117.661C171.439 117.464 171.567 117.344 171.621 117.302L173.487 118.735C173.441 118.753 173.342 118.833 173.187 118.974C173.034 119.11 172.853 119.325 172.644 119.62C172.438 119.91 172.26 120.269 172.112 120.697C171.855 121.438 171.825 122.003 172.023 122.395C172.224 122.793 172.555 123.042 173.017 123.142C173.377 123.211 173.735 123.093 174.092 122.789C174.45 122.479 174.889 121.991 175.41 121.325C176.021 120.563 176.573 119.95 177.068 119.488C177.563 119.024 178.159 118.686 178.857 118.472C179.557 118.253 180.344 118.295 181.218 118.6C182.296 118.974 183.072 119.682 183.547 120.72C184.023 121.754 183.993 123.041 183.458 124.582C183.118 125.561 182.655 126.347 182.07 126.941C181.49 127.536 180.863 127.922 180.189 128.099C179.515 128.277 178.836 128.266 178.154 128.068L178.778 125.695Z" fill="#4C6359"/>
<path d="M0.151855 94.1925C0.151855 90.177 3.40616 86.9222 7.42106 86.9222C11.436 86.9222 14.6903 90.177 14.6903 94.1925C14.6903 98.2079 11.436 101.463 7.42106 101.463C3.40616 101.463 0.151855 98.2079 0.151855 94.1925Z" fill="#4C6359"/>
<path d="M173.976 94.1925C173.976 90.177 177.23 86.9222 181.245 86.9222C185.26 86.9222 188.514 90.177 188.514 94.1925C188.514 98.2079 185.26 101.463 181.245 101.463C177.23 101.463 173.976 98.2079 173.976 94.1925Z" fill="#4C6359"/>
</g>
</g>
</g>
</g>
</g>
<defs>
<clipPath id="clip0_54951_25677">
<rect width="532" height="188" fill="white" transform="translate(-0.322266 0.194519)"/>
</clipPath>
<clipPath id="clip1_54951_25677">
<rect width="531.052" height="188.389" fill="white" transform="translate(0.151855)"/>
</clipPath>
<clipPath id="clip2_54951_25677">
<rect width="531.052" height="188.389" fill="white" transform="translate(0.151855)"/>
</clipPath>
<clipPath id="clip3_54951_25677">
<rect width="304.793" height="64.2187" fill="white" transform="translate(226.41 62.0852)"/>
</clipPath>
<clipPath id="clip4_54951_25677">
<rect width="304.793" height="64.2187" fill="white" transform="translate(226.41 62.0852)"/>
</clipPath>
<clipPath id="clip5_54951_25677">
<rect width="304.793" height="64.2187" fill="white" transform="translate(226.41 62.0852)"/>
</clipPath>
<clipPath id="clip6_54951_25677">
<rect width="304.793" height="64.2187" fill="white" transform="translate(226.41 62.0852)"/>
</clipPath>
<clipPath id="clip7_54951_25677">
<rect width="188.362" height="188.389" fill="white" transform="translate(0.151855)"/>
</clipPath>
<clipPath id="clip8_54951_25677">
<rect width="188.362" height="188.389" fill="white" transform="translate(0.151855)"/>
</clipPath>
<clipPath id="clip9_54951_25677">
<rect width="72.4976" height="88.8074" fill="white" transform="translate(58.084 49.7908)"/>
</clipPath>
<clipPath id="clip10_54951_25677">
<rect width="72.4976" height="88.8074" fill="white" transform="translate(58.084 49.7908)"/>
</clipPath>
</defs>
</svg>
